<svg fill="none" xmlns="http://www.w3.org/2000/svg"><path d="m3 3v180h180v-180zm75 135h30v-45a15 30 0 0 0 15-30 30 15 0 0 0 -30-15 30 15 0 0 0 -30 15 15 30 0 0 0 15 30zm-75-105 15-15 15-15m-30 60 15-15 15-15 15-15 15-15m-60 90 90-90m-90 120 45-45m45-45 30-30m-120 150 60-60m60-60 30-30m-150 180 60-60m75-75 45-45m-150 180 30-30m60-60 60-60m-120 150 30-30m30-30 60-60m-90 120 90-90m-60 90 60-60m-30 60 30-30" fill="none" stroke="#000" stroke-linecap="round" stroke-linejoin="round" stroke-width="6"/></svg>
